# xmcd CD database file
#
# Track frame offsets:
#	150
#	21373
#	43732
#	62412
#	81596
#	100333
#	115397
#
# Disc length: 1764 seconds
#
# Revision: 0
# Processed by: cddbd v1.5.2PL0 Copyright (c) Steve Scherf et al.
# Submitted via: CDex 1.70beta3
#
DISCID=5c06e207
DTITLE=L'Arc～en～Ciel - QUADRINITY ～MEMBER'S BEST SELECTIONS～ yukihiro best [Disc 4]
DYEAR=1900
DGENRE=ロック
TTITLE0=a swell in the sun
TTITLE1=cradle
TTITLE2=drink it down
TTITLE3=get out from the shell -asian version-
TTITLE4=new world
TTITLE5=revelation
TTITLE6=trick
EXTD=
EXTT0=
EXTT1=
EXTT2=
EXTT3=
EXTT4=
EXTT5=
EXTT6=
PLAYORDER=
